<svg width="60" height="60" viewBox="0 0 60 60" fill="none" xmlns="http://www.w3.org/2000/svg">
<path d="M40 21L17.8125 43.25C17.3125 43.75 16.7183 44 16.03 44C15.3433 44 14.75 43.75 14.25 43.25C13.75 42.75 13.5 42.1558 13.5 41.4675C13.5 40.7808 13.75 40.1875 14.25 39.6875L36.5 17.5H17.5C16.7917 17.5 16.1975 17.2608 15.7175 16.7825C15.2392 16.3025 15 15.7083 15 15C15 14.2917 15.2392 13.6975 15.7175 13.2175C16.1975 12.7392 16.7917 12.5 17.5 12.5H42.5C43.2083 12.5 43.8017 12.7392 44.28 13.2175C44.76 13.6975 45 14.2917 45 15V40C45 40.7083 44.76 41.3017 44.28 41.78C43.8017 42.26 43.2083 42.5 42.5 42.5C41.7917 42.5 41.1983 42.26 40.72 41.78C40.24 41.3017 40 40.7083 40 40V21Z" fill="white"/>
</svg>
